<svg xmlns="http://www.w3.org/2000/svg" viewBox="0 0 64 64" id="Add"><path d="M58 3H22a3 3 0 0 0-3 3v13H6a3 3 0 0 0-3 3v36a3 3 0 0 0 3 3h36a3 3 0 0 0 3-3V45h13a3 3 0 0 0 3-3V6a3 3 0 0 0-3-3ZM43 58a1 1 0 0 1-1 1H6a1 1 0 0 1-1-1V22a1 1 0 0 1 1-1h13v21a3 3 0 0 0 3 3h21Zm16-16a1 1 0 0 1-1 1H22a1 1 0 0 1-1-1V6a1 1 0 0 1 1-1h36a1 1 0 0 1 1 1Z" fill="#ffffff" class="color000000 svgShape"></path><path d="M48 23h-7v-7a1 1 0 0 0-2 0v7h-7a1 1 0 0 0 0 2h7v7a1 1 0 0 0 2 0v-7h7a1 1 0 0 0 0-2Z" fill="#ffffff" class="color000000 svgShape"></path></svg>