<svg xmlns="http://www.w3.org/2000/svg" viewBox="0 0 64 64" id="Game"><path style="text-indent:0;text-align:start;line-height:normal;text-transform:none;block-progression:tb;marker:none;-inkscape-font-specification:Sans" d="M.344 1027.366a.515.515 0 0 0-.343.5v17c0 .262.238.5.5.5H31.5a.52.52 0 0 0 .5-.5v-17a.52.52 0 0 0-.5-.5H.5a.41.41 0 0 0-.156 0zm.657 1H31v2H1zm0 3h6v10H1zm7 0h16v4.5h-7.5v-.5h-1v.5H8v-4zm17 0H31v10h-6v-9.5zm-9.5 1v2h1v-2zm-7.5 4.5h7.5v.5h1v-.5H24v4.5H8v-.5zm7.5 1.5v2h1v-2zm-14.5 4H31v2H1z" color="#000" enable-background="accumulate" font-family="Sans" font-weight="400" overflow="visible" transform="translate(0 -1020.362)" fill="#ffffff" class="color000000 svgShape"></path></svg>