<svg xmlns="http://www.w3.org/2000/svg" width="32" height="32" id="game"><g transform="translate(0 -1020.362)"><circle cx="16" cy="1036.362" r="16" fill="#5dc560" fill-rule="evenodd"></circle><path fill="#43ab27" style="line-height:normal;text-indent:0;text-align:start;text-decoration-line:none;text-decoration-style:solid;text-decoration-color:#000;text-transform:none;block-progression:tb;isolation:auto;mix-blend-mode:normal" d="M17.766 31.883a16 16 0 0 0 .953-.115 16 16 0 0 0 1.56-.352 16 16 0 0 0 1.518-.504 16 16 0 0 0 1.46-.652 16 16 0 0 0 1.388-.797 16 16 0 0 0 1.3-.93 16 16 0 0 0 1.201-1.054 16 16 0 0 0 1.092-1.172 16 16 0 0 0 .967-1.272 16 16 0 0 0 .836-1.365 16 16 0 0 0 .695-1.44 16 16 0 0 0 .55-1.501 16 16 0 0 0 .396-1.551 16 16 0 0 0 .05-.34L19.811 6.916a4.65 4.65 0 0 0-.454-.398l-.003-.004a4.6 4.6 0 0 0-.708-.436c-.087-.045-.174-.09-.265-.129-.053-.023-.104-.047-.158-.068a4.492 4.492 0 0 0-1.492-.31v.007c-.312-.01-.62.012-.92.065-1.804.315-3.347 1.72-3.854 3.67l-.342 1.367c-.406 1.65-.285 3.266.258 4.566.154.368.347.707.568 1.018 1.07 1.886.7 3.775.418 4.931a.99.99 0 0 0-.463.616l-.779 3.255a.88.88 0 0 0-.021.338.95.95 0 0 0 .125.39c.004.007.01.012.013.018.04.063.084.124.137.176l5.895 5.895z" color="#000" font-family="sans-serif" font-weight="400" transform="translate(0 1020.362)"></path><path fill="#fff" style="line-height:normal;text-indent:0;text-align:start;text-decoration-line:none;text-decoration-style:solid;text-decoration-color:#000;text-transform:none;block-progression:tb;isolation:auto;mix-blend-mode:normal" d="M16.731 1025.94a4.47 4.47 0 0 0-.92.065c-1.803.316-3.346 1.721-3.853 3.67a.326.326 0 0 0-.001 0l-.341 1.367a.326.326 0 0 0-.002 0c-.406 1.65-.283 3.267.26 4.567.154.368.346.707.567 1.018 1.07 1.886.7 3.774.418 4.93a.989.989 0 0 0-.463.615l-.778 3.257c-.145.506.182 1.05.72 1.186h.002l.53.144c.013 0 .026.01.04.01.492.07.996-.218 1.14-.721l.003-.01.83-3.272.007-.034a1.097 1.097 0 0 0-.139-.71c-.004-.01-.009-.012-.012-.018.294-1.176.851-2.962 2.61-4.132.364-.18.714-.404 1.04-.678 1.086-.911 1.947-2.3 2.353-3.949l.342-1.366a.326.326 0 0 0 0-.001c.626-2.56-.891-5.183-3.41-5.813a4.476 4.476 0 0 0-.943-.132zm-.025.65c.162 0 .327.025.491.052l-.157.64-.76-.19.122-.496c.1-.01.202-.01.304-.01zm-1 .108-.058.236-.404-.102c.15-.055.306-.097.463-.134zm2.123.102c.267.091.52.208.754.349l-.121.489-.79-.198.157-.64zm-3.133.568.796.198-.157.634-.795-.195.156-.637zm4.456.196c.119.103.231.214.337.33l-.395-.098.058-.232zm-5.182.028-.064.258-.168-.04a4.18 4.18 0 0 1 .232-.219zm2.154.132.76.19-.154.628-.762-.187.156-.63zm1.392.349.79.197-.153.621-.79-.193.153-.625zm-4.238.292.472.116-.158.643-.666-.163c.104-.21.22-.409.352-.596zm5.66.062.767.191-.153.616-.767-.188.153-.619zm-4.555.21.797.195-.16.643-.796-.196.16-.643zm1.43.35.762.187-.158.643-.764-.187.16-.643zm4.442.126c.043.106.082.213.117.322l-.186-.046.069-.276zm-3.048.217.79.193-.159.644-.789-.193.158-.644zm-4.529.24.757.186-.164.664-.781-.19.098-.391h.001c.024-.092.06-.177.09-.266zm5.952.108.766.189-.16.644-.765-.189.159-.644zm-4.562.233.796.196-.162.663-.798-.195.164-.664zm5.962.11.504.123c.03.228.043.46.036.694l-.7-.172.16-.645zm-4.533.241.763.189-.162.661-.764-.187.163-.662zm1.397.344.788.193-.163.66-.788-.193.163-.66zm-4.562.257.781.191-.159.645-.77-.19c.02-.102.038-.203.063-.306v-.001l.085-.339zm5.982.093.766.188-.161.656-.766-.187.161-.657zm-4.567.252.798.195-.16.65-.798-.197.16-.648zm5.966.092.784.192c-.015.08-.027.159-.046.238l-.104.42-.796-.195.162-.655zm-4.536.258.765.187-.16.653-.765-.188.16-.652zm1.399.341.788.193-.163.657-.787-.194.162-.656zm-4.496.256.718.177-.162.654-.606-.149c.005-.224.024-.452.05-.682zm5.916.09.766.187-.164.663-.765-.19.163-.66zm-4.566.243.798.197-.16.652-.8-.196.162-.653zm5.965.1.794.193-.08.314c-.028.12-.064.233-.098.348l-.78-.193.164-.663zm-4.534.254.766.19-.16.648-.767-.188.16-.65zm1.398.346.785.193-.159.648-.785-.194.16-.647zm-4.21.324.43.106-.153.623-.186-.046a6.468 6.468 0 0 1-.09-.683zm5.628.025.765.19-.16.645-.764-.188.159-.647zm-4.565.236.8.196-.155.624-.799-.197.154-.623zm5.962.11.725.18a7.461 7.461 0 0 1-.27.616l-.614-.152.159-.644zm-4.53.241.767.188-.154.628-.767-.19.154-.626zm1.4.345.785.192-.156.627-.782-.193.154-.626zm1.417.347.765.189-.155.627-.764-.188.154-.628zm-4.56.213.801.197-.156.634-.8-.196.156-.635zm5.957.13.437.108c-.126.2-.26.39-.4.569l-.192-.047.155-.63zm-4.525.224.769.19-.155.63-.769-.188.155-.632zm1.401.344.784.194-.156.631-.783-.192.155-.633zm1.417.349.763.188-.156.63-.763-.187.156-.631zm-3.934.376.172.042-.03.12c-.048-.054-.096-.106-.142-.162zm.804.197.77.188-.161.655a3.057 3.057 0 0 1-.722-.383l.113-.46zm1.403.343.782.192-.113.461a2.822 2.822 0 0 1-.83 0l.16-.656zm1.415.348.159.039c-.062.027-.125.05-.187.074l.028-.114zm-3.148.402c.244.158.505.286.784.383l-.81 3.317h-.006c.207-.923.412-2.255.031-3.699zm1.416.54c.285.045.57.052.854.028-.804.883-1.252 1.885-1.527 2.73l.673-2.757zm4.98 1.156c-.428 0-.822.12-1.17.312.612 1.542.5 2.99.02 4.232a2.37 2.37 0 0 0 1.15.307c.454 0 .88-.14 1.249-.369-.454-1.222-.498-2.621.022-4.108a2.4 2.4 0 0 0-1.272-.374zm-1.72.713a2.417 2.417 0 0 0-.706 1.713c0 .661.278 1.275.728 1.72a4.93 4.93 0 0 0-.022-3.433zm3.529.12c-.36 1.171-.336 2.243-.027 3.205.394-.433.643-.999.643-1.612 0-.616-.24-1.167-.616-1.592z" color="#000" font-family="sans-serif" font-weight="400" overflow="visible"></path></g></svg>