<svg xmlns="http://www.w3.org/2000/svg" viewBox="0 0 16.933 16.933" id="racket"><path d="m 3.353442,1.0583264 c -0.5336038,0 -1.0245227,0.1851798 -1.4148757,0.4924705 0.7979481,0.7393204 2.0242532,0.7433175 2.8271678,0.00517 a 0.26465567,0.2646835 0 0 1 0.00465,-0.00362 C 4.3796018,1.244095 3.8879705,1.0583264 3.353442,1.0583264 Z m 8.701124,5.16e-4 C 10.712251,1.0773202 9.2705944,1.6868013 8.1375616,2.8199549 6.1232802,4.8344499 5.7658102,7.8231964 7.4389087,9.4964695 9.1120079,11.169743 12.098521,10.810758 14.112803,8.7962624 16.127084,6.781767 16.487657,3.7930213 14.814556,2.1197477 14.082575,1.3876909 13.098589,1.0444723 12.054566,1.0588424 Z m -0.01705,0.5317441 c 0.134805,-0.00237 0.267979,0.00238 0.399452,0.013436 l -0.0026,0.00259 1.258815,1.2588227 0.547245,-0.5472467 c 0.06796,0.056565 0.136222,0.1124464 0.199467,0.1756977 0.06295,0.062955 0.11886,0.1313269 0.17518,0.1989518 l -0.546727,0.547247 1.258298,1.2588226 0.0031,-0.0031 c 0.02087,0.2477524 0.01643,0.5022175 -0.01033,0.7601511 l -0.784434,0.7849555 0.472831,0.472834 c -0.0682,0.1722279 -0.150448,0.3425214 -0.239249,0.5115896 L 14.159834,6.41608 13.134075,7.4423616 13.918509,8.2268004 c -0.05965,0.065153 -0.116478,0.1314585 -0.17983,0.1948177 -0.06278,0.06279 -0.128724,0.1191358 -0.193267,0.1782816 L 12.760978,7.815461 11.734702,8.8417427 12.343439,9.4510006 c -0.168646,0.088626 -0.338761,0.1706361 -0.510554,0.2387423 L 11.35954,9.2169031 10.574073,10.001858 c -0.257841,0.02669 -0.512484,0.03129 -0.7601485,0.01033 l 0.00362,-0.0036 L 8.5587251,8.7497518 8.0119983,9.2964821 C 7.944338,9.2401184 7.8760379,9.1848144 7.813048,9.1218179 7.7495374,9.0583007 7.6936082,8.9895855 7.6368342,8.9213156 L 8.1835615,8.3745859 6.9247457,7.1157627 l -0.00206,0.00206 C 6.9018513,6.8703913 6.9058465,6.6162839 6.932498,6.3587126 L 7.7169326,5.5742735 7.2435848,5.1014401 C 7.3117338,4.9292239 7.3940832,4.758901 7.4828425,4.5898495 L 8.0920966,5.1991073 9.117856,4.1733427 8.3329048,3.3878703 C 8.392186,3.3231358 8.4487415,3.2570452 8.5116959,3.1940844 8.5748742,3.1308995 8.6410303,3.0742638 8.7059958,3.0147692 L 9.4909471,3.8002415 10.51774,2.7734433 9.9084853,2.1641854 C 10.077395,2.0755338 10.248005,1.9935333 10.420073,1.9254431 l 0.472831,0.4728337 0.783917,-0.7839221 c 0.12096,-0.01254 0.241558,-0.021679 0.360695,-0.023771 z M 5.1439989,1.9228627 a 0.26465567,0.2646835 0 0 1 -0.019637,0.021704 C 4.1166501,2.8709976 2.5582658,2.8609505 1.5623685,1.9233795 1.248355,2.3160057 1.0590488,2.8125993 1.0590489,3.3527325 c -1e-7,0.5179393 0.1750287,0.9949896 0.4661133,1.3797443 a 0.2645882,0.264616 0 0 1 0.029972,-0.03359 C 2.0529243,4.2268229 2.6925237,3.9875557 3.334322,3.9826606 3.9761212,3.9777711 4.6193248,4.2071985 5.1243623,4.6714991 a 0.26465567,0.2646835 0 0 1 0.050642,0.069762 C 5.4702332,4.3550176 5.6478356,3.874629 5.6478356,3.3527321 c 0,-0.540392 -0.1894428,-1.0371555 -0.5038367,-1.4298694 z m 6.9157351,0.058393 -0.792186,0.7921903 1.258816,1.2588227 0.792185,-0.7921901 z M 10.892385,3.1486131 9.8661077,4.1748947 11.124924,5.4337173 12.1512,4.4074357 Z m 2.800812,0.4666324 -0.791669,0.7916734 1.258816,1.2588227 0.791152,-0.7916733 z M 3.3384563,4.5092373 C 2.8278594,4.5134971 2.3186619,4.705261 1.9199631,5.0833556 a 0.2645882,0.264616 0 0 1 -0.035656,0.028939 c 0.3984768,0.3335739 0.9107382,0.5353613 1.4691349,0.5353613 0.5635041,3e-7 1.0798673,-0.2055995 1.4799868,-0.544663 A 0.26465567,0.2646835 0 0 1 4.7657341,5.0601013 C 4.3612304,4.688225 3.8490526,4.5049777 3.3384563,4.5092373 Z m 6.1545543,0.038757 -1.0262759,1.025765 1.2588155,1.2588229 1.0262778,-1.025765 z m 3.0333534,0.2340915 -1.026276,1.0262816 1.258816,1.258823 1.026275,-1.026282 z m -4.4347936,1.1668399 -0.7916688,0.792707 1.2582988,1.258306 0.7921858,-0.79219 z m 3.0354206,0.232541 -1.026276,1.026282 1.258816,1.2588226 1.026276,-1.0262817 z M 9.7255502,7.5829142 8.9333647,8.3751048 10.19218,9.6339271 l 0.792187,-0.79219 z m -3.509801,1.0423012 c -0.2085224,0.6039 -0.5384615,1.1892957 -0.9704663,1.7140856 0.09254,0.03969 0.1783803,0.09579 0.2506261,0.168464 l 0.9327433,0.933266 a 0.52917634,0.52923201 0 0 1 0.00156,0.0016 c 0.071891,0.07253 0.1251524,0.157008 0.162778,0.247009 0.524439,-0.432137 1.1094725,-0.761787 1.7130455,-0.970523 C 7.8528969,10.520168 7.4330201,10.239386 7.06479,9.8711176 6.6954644,9.5017535 6.4148751,9.0800556 6.2157611,8.6252135 Z M 4.9295453,10.802834 v 5.29e-4 c -0.069518,6.88e-4 -0.1354653,0.02822 -0.1844815,0.07752 l -0.3875664,0.387569 1.3079074,1.307914 0.3870496,-0.387569 c 0.1037088,-0.1029 0.104911,-0.269855 0.00206,-0.373616 L 5.1202316,10.880865 c -0.050405,-0.0507 -0.1191969,-0.07884 -0.1906826,-0.07803 z m -0.9461785,0.839732 -0.5591293,0.559649 1.3073905,1.307398 0.5596461,-0.559132 z m -0.93326,0.933781 -0.559646,0.559133 -0.045991,-0.04599 a 0.2645882,0.264616 0 0 0 -0.3741307,-0.0016 l -0.9337767,0.933781 a 0.2645882,0.264616 0 0 0 0,0.375684 l 1.4004066,1.400414 a 0.2645882,0.264616 0 0 0 0.3746475,-0.001 l 0.93326,-0.933782 a 0.2645882,0.264616 0 0 0 -5.292e-4,-0.3731 l -0.045991,-0.04651 0.5591288,-0.559133 z" fill="#ffffff" class="color000000 svgShape"></path></svg>