<svg xmlns="http://www.w3.org/2000/svg" data-name="Layer 1" viewBox="0 0 64 64" id="position-badge"><circle cx="32" cy="32" r="32" fill="#ffd05c"></circle><rect width="7.2" height="7.2" x="28.4" y="25.03" fill="#47646d"></rect><polygon fill="#e5e5e5" points="17.25 6.99 26.97 25.74 36.92 25.74 27.08 6.99 17.25 6.99"></polygon><polygon fill="#fff" points="46.76 6.99 37.03 25.74 27.08 25.74 36.92 6.99 46.76 6.99"></polygon><path fill="#617a87" d="M46.69,42.63l-1.75,1.2a.42.42,0,0,0-.09.62l1.34,1.64a.42.42,0,0,1-.2.67l-2,.66a.42.42,0,0,0-.26.57l.82,2a.42.42,0,0,1-.38.59l-2.12.06a.42.42,0,0,0-.41.47l.24,2.1a.42.42,0,0,1-.53.46l-2-.54a.42.42,0,0,0-.52.34l-.36,2.09a.42.42,0,0,1-.63.29L36,54.7a.42.42,0,0,0-.6.18l-.94,1.9a.42.42,0,0,1-.69.1l-1.43-1.56a.42.42,0,0,0-.62,0l-1.43,1.56a.42.42,0,0,1-.69-.1l-.94-1.9a.42.42,0,0,0-.6-.18l-1.82,1.09a.42.42,0,0,1-.63-.29l-.36-2.09a.42.42,0,0,0-.52-.34l-2.05.54a.42.42,0,0,1-.53-.46l.24-2.1a.42.42,0,0,0-.41-.47l-2.12-.06a.42.42,0,0,1-.38-.59l.82-2a.42.42,0,0,0-.26-.57l-2-.66a.42.42,0,0,1-.2-.67l1.34-1.64a.42.42,0,0,0-.09-.62l-1.75-1.2a.42.42,0,0,1,0-.7l1.75-1.2a.42.42,0,0,0,.09-.62L17.8,38.48a.42.42,0,0,1,.2-.67l2-.66a.42.42,0,0,0,.26-.57l-.82-2a.42.42,0,0,1,.38-.59L21.95,34a.42.42,0,0,0,.41-.47l-.24-2.1a.42.42,0,0,1,.53-.46l2,.54a.42.42,0,0,0,.52-.34l.36-2.09a.42.42,0,0,1,.63-.29L28,29.87a.42.42,0,0,0,.6-.18l.94-1.9a.42.42,0,0,1,.69-.1l1.43,1.56a.42.42,0,0,0,.62,0l1.43-1.56a.42.42,0,0,1,.69.1l.94,1.9a.42.42,0,0,0,.6.18l1.82-1.09a.42.42,0,0,1,.63.29l.36,2.09a.42.42,0,0,0,.52.34L41.36,31a.42.42,0,0,1,.53.46l-.24,2.1a.42.42,0,0,0,.41.47l2.12.06a.42.42,0,0,1,.38.59l-.82,2a.42.42,0,0,0,.26.57l2,.66a.42.42,0,0,1,.2.67l-1.34,1.64a.42.42,0,0,0,.09.62l1.75,1.2A.42.42,0,0,1,46.69,42.63Z"></path><circle cx="32" cy="42.44" r="6.75" fill="#617a87"></circle><polygon fill="#fff" points="32.22 37.54 33.4 41.16 37.21 41.16 34.13 43.4 35.31 47.03 32.22 44.79 29.14 47.03 30.32 43.4 27.23 41.16 31.04 41.16 32.22 37.54"></polygon><path fill="#fff" d="M32,35.41a7,7,0,1,1-7,7,7,7,0,0,1,7-7m0-3a10,10,0,1,0,10,10,10,10,0,0,0-10-10Z"></path></svg>