<svg xmlns="http://www.w3.org/2000/svg" data-name="Layer 1" viewBox="0 0 64 64" id="Star"><path d="M61.33547,10.57178l-7.1084-2.04346-4.18359-5.957a3.72615,3.72615,0,0,0-6.08008.00049L39.77981,8.52832l-7.10938,2.04395a3.67763,3.67763,0,0,0-2.49219,2.40429,3.62685,3.62685,0,0,0,.6084,3.35987l4.501,5.70752-.20215,7.19189a3.64594,3.64594,0,0,0,1.49512,3.043,3.73325,3.73325,0,0,0,3.42969.51318l6.99316-2.42627,6.99219,2.42578a3.73245,3.73245,0,0,0,3.43066-.51269,3.64544,3.64544,0,0,0,1.49512-3.042L58.71926,22.044l4.501-5.70752A3.66955,3.66955,0,0,0,61.33547,10.57178Zm-5.83789,9.09814a3.63644,3.63644,0,0,0-.78027,2.352l.19238,6.853L48.229,26.55713a3.75833,3.75833,0,0,0-2.45118,0L39.09719,28.875l.19238-6.853a3.63644,3.63644,0,0,0-.78027-2.352l-4.252-5.3916,6.72656-1.93457a3.70763,3.70763,0,0,0,2.00586-1.42627l4.01367-5.71435L51.01613,10.916A3.71188,3.71188,0,0,0,53.023,12.34424l6.72656,1.93408Z" fill="#ffffff" class="color000000 svgShape"></path><path d="M31.33547 21.57178l-7.1084-2.04346-4.18359-5.957a3.72615 3.72615 0 0 0-6.08008.00049L9.77981 19.52832 2.67043 21.57227A3.67763 3.67763 0 0 0 .17824 23.97656a3.62685 3.62685 0 0 0 .6084 3.35987l4.501 5.70752-.20215 7.19189a3.64594 3.64594 0 0 0 1.49512 3.043 3.73325 3.73325 0 0 0 3.42969.51318l6.99316-2.42627 6.99219 2.42578a3.73242 3.73242 0 0 0 3.43066-.51269 3.64544 3.64544 0 0 0 1.49512-3.042L28.71926 33.044l4.501-5.70752A3.66955 3.66955 0 0 0 31.33547 21.57178zm-5.83789 9.09814a3.63644 3.63644 0 0 0-.78027 2.35205l.19238 6.853L18.229 37.55713a3.75833 3.75833 0 0 0-2.45118 0L9.09719 39.875l.19238-6.853a3.63644 3.63644 0 0 0-.78027-2.35205l-4.25195-5.3916 6.72656-1.93457a3.70763 3.70763 0 0 0 2.00586-1.42627l4.01367-5.71435L21.01613 21.916A3.71188 3.71188 0 0 0 23.023 23.34424l6.72656 1.93408zM44.00344 35a2.0001 2.0001 0 0 0-2 2V53a2 2 0 0 0 4 0V37A2.0001 2.0001 0 0 0 44.00344 35zM52.00344 38a2.0001 2.0001 0 0 0-2 2V50a2.00021 2.00021 0 0 0 4-.00009V40A2.0001 2.0001 0 0 0 52.00344 38zM12.00344 45a2.00019 2.00019 0 0 0 .00008 4A2.00019 2.00019 0 0 0 12.00344 45zM12.00344 52a2.0001 2.0001 0 0 0-2 2v7a2.00021 2.00021 0 0 0 4-.00009V54A2.0001 2.0001 0 0 0 12.00344 52zM20.00344 47a2.0001 2.0001 0 0 0-2 2V61a2 2 0 0 0 4 0V49A2.0001 2.0001 0 0 0 20.00344 47z" fill="#ffffff" class="color000000 svgShape"></path></svg>